<svg xmlns="http://www.w3.org/2000/svg" version="1.1" xmlns:xlink="http://www.w3.org/1999/xlink" xmlns:svgjs="http://svgjs.dev/svgjs" width="1000" height="1000" viewBox="0 0 1000 1000"><rect width="1000" height="1000" fill="#7fdbff"></rect><g transform="matrix(0.7,0,0,0.7,149.57577044552573,375.6541167938902)"><svg viewBox="0 0 396 141" data-background-color="#7fdbff" preserveAspectRatio="xMidYMid meet" height="356" width="1000" xmlns="http://www.w3.org/2000/svg" xmlns:xlink="http://www.w3.org/1999/xlink"><g id="tight-bounds" transform="matrix(1,0,0,1,0.23999286870096626,-0.14378197407106086)"><svg viewBox="0 0 395.5199999999999 141.28756394814212" height="141.28756394814212" width="395.5199999999999"><g><svg viewBox="0 0 562.6788216773226 200.99999999999997" height="141.28756394814212" width="395.5199999999999"><g><rect width="8.220234038361845" height="200.99999999999997" x="216.85762744081558" y="0" fill="#ffffff" opacity="1" stroke-width="0" stroke="transparent" fill-opacity="1" class="rect-o-0" data-fill-palette-color="primary" rx="1%" id="o-0" data-palette-color="#ffffff"></rect></g><g transform="matrix(1,0,0,1,246.59679875237595,0.4999999999999858)"><svg viewBox="0 0 316.08202292494667 200" height="200" width="316.08202292494667"><g><svg viewBox="0 0 316.08202292494667 200" height="200" width="316.08202292494667"><g><svg viewBox="0 0 316.08202292494667 200" height="200" width="316.08202292494667"><g transform="matrix(1,0,0,1,0,0)"><svg width="316.08202292494667" viewBox="1.6100003719329834 -30.660003662109375 107.17999267578125 64.81000518798828" height="200" data-palette-color="#ffffff"><svg></svg><svg></svg><g class="undefined-text-0" data-fill-palette-color="primary" id="text-0"><path xmlns="http://www.w3.org/2000/svg" d="M5.52 0c-0.46 0-0.793-0.107-1-0.32-0.213-0.207-0.32-0.53-0.32-0.97v0-28.23c0-0.647 0.587-0.97 1.76-0.97v0h0.34c1.153 0 1.73 0.323 1.73 0.97v0 26.22h11.94c0.307 0 0.527 0.103 0.66 0.31 0.133 0.2 0.2 0.53 0.2 0.99v0 0.71c0 0.44-0.067 0.763-0.2 0.97-0.133 0.213-0.353 0.32-0.66 0.32v0zM26.51 0c-0.453 0-0.787-0.107-1-0.32-0.207-0.207-0.31-0.53-0.31-0.97v0-27.79c0-0.453 0.103-0.783 0.31-0.99 0.213-0.2 0.547-0.3 1-0.3v0h15.14c0.307 0 0.53 0.097 0.67 0.29 0.14 0.193 0.21 0.527 0.21 1v0 0.71c0 0.44-0.07 0.767-0.21 0.98-0.14 0.207-0.363 0.31-0.67 0.31v0h-12.62v9.89h11.33c0.307 0 0.53 0.107 0.67 0.32 0.14 0.213 0.21 0.547 0.21 1v0 0.66c0 0.453-0.07 0.783-0.21 0.99-0.14 0.2-0.363 0.3-0.67 0.3v0h-11.33v10.62h12.67c0.307 0 0.53 0.103 0.67 0.31 0.14 0.2 0.21 0.53 0.21 0.99v0 0.71c0 0.44-0.07 0.763-0.21 0.97-0.14 0.213-0.363 0.32-0.67 0.32v0zM56.52 0.07c-0.6 0-1.04-0.077-1.32-0.23-0.273-0.153-0.41-0.393-0.41-0.72v0-26.2h-8.35c-0.313 0-0.533-0.103-0.66-0.31-0.133-0.213-0.2-0.54-0.2-0.98v0-0.71c0-0.453 0.067-0.783 0.2-0.99 0.127-0.2 0.347-0.3 0.66-0.3v0h20.36c0.307 0 0.527 0.1 0.66 0.3 0.127 0.207 0.19 0.537 0.19 0.99v0 0.71c0 0.44-0.063 0.767-0.19 0.98-0.133 0.207-0.353 0.31-0.66 0.31v0h-8.18v26.2c0 0.633-0.587 0.95-1.76 0.95v0zM72.61-20.48c-0.553 0-0.87-0.173-0.95-0.52v0l-0.96-8v-0.52c0-0.647 0.58-0.97 1.74-0.97v0h0.44c1.153 0 1.73 0.323 1.73 0.97v0c0 0.18-0.253 2.32-0.76 6.42v0c-0.013 0.233-0.093 0.933-0.24 2.1v0c-0.067 0.347-0.383 0.52-0.95 0.52v0zM87.08 0.24c-1.593 0-3.077-0.173-4.45-0.52-1.373-0.353-2.473-0.777-3.3-1.27-0.82-0.493-1.23-0.947-1.23-1.36v0c0-0.227 0.093-0.527 0.28-0.9 0.187-0.373 0.403-0.707 0.65-1 0.24-0.293 0.433-0.44 0.58-0.44v0c0.133 0 0.42 0.13 0.86 0.39v0c1.007 0.52 2.007 0.953 3 1.3 0.993 0.34 2.197 0.51 3.61 0.51v0c1.113 0 2.1-0.213 2.96-0.64 0.86-0.42 1.53-1.017 2.01-1.79 0.48-0.773 0.72-1.663 0.72-2.67v0c0-1.08-0.287-1.973-0.86-2.68-0.58-0.707-1.28-1.267-2.1-1.68-0.827-0.413-2.02-0.93-3.58-1.55v0c-1.693-0.653-3.033-1.26-4.02-1.82-0.98-0.56-1.817-1.377-2.51-2.45-0.693-1.08-1.04-2.507-1.04-4.28v0c0-1.547 0.4-2.933 1.2-4.16 0.793-1.227 1.923-2.183 3.39-2.87 1.467-0.68 3.153-1.02 5.06-1.02v0c0.86 0 1.843 0.117 2.95 0.35 1.107 0.233 2.053 0.553 2.84 0.96 0.793 0.407 1.19 0.857 1.19 1.35v0c0 0.207-0.087 0.493-0.26 0.86-0.167 0.367-0.367 0.697-0.6 0.99-0.227 0.293-0.403 0.44-0.53 0.44v0c-0.147 0-0.44-0.12-0.88-0.36v0c-0.733-0.393-1.46-0.707-2.18-0.94-0.713-0.24-1.583-0.36-2.61-0.36v0c-1.673 0-3.027 0.433-4.06 1.3-1.033 0.86-1.55 2.063-1.55 3.61v0c0 0.927 0.227 1.69 0.68 2.29 0.453 0.607 1.03 1.087 1.73 1.44 0.7 0.36 1.677 0.777 2.93 1.25v0c0.087 0.013 0.277 0.077 0.57 0.19v0c1.72 0.673 3.13 1.323 4.23 1.95 1.1 0.627 2.037 1.523 2.81 2.69 0.773 1.173 1.16 2.673 1.16 4.5v0c0 1.707-0.397 3.193-1.19 4.46-0.787 1.273-1.907 2.247-3.36 2.92-1.46 0.673-3.16 1.01-5.1 1.01z" fill="#ffffff" fill-rule="nonzero" stroke="none" stroke-width="1" stroke-linecap="butt" stroke-linejoin="miter" stroke-miterlimit="10" stroke-dasharray="" stroke-dashoffset="0" font-family="none" font-weight="none" font-size="none" text-anchor="none" style="mix-blend-mode: normal" data-fill-palette-color="primary" opacity="1"></path><path xmlns="http://www.w3.org/2000/svg" d="M10.6 34.15c-1.6 0-3.087-0.173-4.46-0.52-1.373-0.353-2.473-0.777-3.3-1.27-0.82-0.493-1.23-0.947-1.23-1.36v0c0-0.227 0.093-0.527 0.28-0.9 0.187-0.373 0.403-0.707 0.65-1 0.247-0.293 0.443-0.44 0.59-0.44v0c0.127 0 0.41 0.13 0.85 0.39v0c1.007 0.52 2.007 0.953 3 1.3 0.993 0.34 2.2 0.51 3.62 0.51v0c1.107 0 2.09-0.213 2.95-0.64 0.86-0.42 1.53-1.017 2.01-1.79 0.48-0.773 0.72-1.663 0.72-2.67v0c0-1.08-0.287-1.973-0.86-2.68-0.58-0.707-1.28-1.267-2.1-1.68-0.827-0.413-2.02-0.93-3.58-1.55v0c-1.693-0.653-3.03-1.26-4.01-1.82-0.987-0.56-1.827-1.377-2.52-2.45-0.693-1.08-1.04-2.507-1.04-4.28v0c0-1.547 0.4-2.933 1.2-4.16 0.8-1.227 1.93-2.183 3.39-2.87 1.467-0.68 3.153-1.02 5.06-1.02v0c0.86 0 1.843 0.117 2.95 0.35 1.107 0.233 2.053 0.553 2.84 0.96 0.793 0.407 1.19 0.857 1.19 1.35v0c0 0.207-0.087 0.493-0.26 0.86-0.167 0.367-0.367 0.697-0.6 0.99-0.227 0.293-0.403 0.44-0.53 0.44v0c-0.147 0-0.44-0.12-0.88-0.36v0c-0.733-0.393-1.457-0.707-2.17-0.94-0.72-0.24-1.593-0.36-2.62-0.36v0c-1.673 0-3.027 0.433-4.06 1.3-1.033 0.86-1.55 2.063-1.55 3.61v0c0 0.927 0.227 1.69 0.68 2.29 0.46 0.607 1.037 1.087 1.73 1.44 0.7 0.36 1.677 0.777 2.93 1.25v0c0.087 0.013 0.277 0.077 0.57 0.19v0c1.72 0.673 3.13 1.323 4.23 1.95 1.1 0.627 2.037 1.523 2.81 2.69 0.773 1.173 1.16 2.673 1.16 4.5v0c0 1.707-0.393 3.193-1.18 4.46-0.793 1.273-1.917 2.247-3.37 2.92-1.46 0.673-3.157 1.01-5.09 1.01zM31.67 33.98c-1.08 0-1.667-0.227-1.76-0.68v0l-7.42-28.52c-0.02-0.08-0.047-0.183-0.08-0.31-0.033-0.133-0.05-0.233-0.05-0.3v0c0-0.227 0.157-0.41 0.47-0.55 0.307-0.133 0.777-0.2 1.41-0.2v0h0.42c0.473 0 0.863 0.057 1.17 0.17 0.307 0.113 0.493 0.29 0.56 0.53v0l5.52 21.37c0.1 0.42 0.31 1.5 0.63 3.24v0c0.087 0.507 0.137 0.777 0.15 0.81v0c0.36-1.5 0.71-2.89 1.05-4.17v0l5.25-21.2c0.113-0.5 0.673-0.75 1.68-0.75v0h0.69c1.027 0 1.597 0.25 1.71 0.75v0l5.37 21.37c0.16 0.633 0.317 1.39 0.47 2.27 0.16 0.873 0.253 1.45 0.28 1.73v0c0.347-1.4 0.697-2.777 1.05-4.13v0l5.25-21.29c0.113-0.467 0.683-0.7 1.71-0.7v0h0.27c1.24 0 1.86 0.25 1.86 0.75v0c0 0.113-0.043 0.317-0.13 0.61v0l-7.49 28.52c-0.133 0.453-0.72 0.68-1.76 0.68v0h-1.76c-1.053 0-1.63-0.227-1.73-0.68v0l-4.76-17.68-0.88-5.64-0.93 5.64-4.73 17.68c-0.1 0.453-0.67 0.68-1.71 0.68v0zM61.08 33.98c-0.647 0-1.117-0.06-1.41-0.18-0.293-0.12-0.44-0.303-0.44-0.55v0c0-0.113 0.04-0.31 0.12-0.59v0l10.28-28.54c0.16-0.467 0.737-0.7 1.73-0.7v0h1.27c0.993 0 1.573 0.233 1.74 0.7v0l10.27 28.57c0.087 0.18 0.13 0.367 0.13 0.56v0c0 0.487-0.613 0.73-1.84 0.73v0h-0.36c-1.013 0-1.6-0.227-1.76-0.68v0l-2.54-7.13h-12.74l-2.49 7.13c-0.147 0.453-0.727 0.68-1.74 0.68v0zM66.72 22.87h10.38l-4.54-12.91c-0.133-0.36-0.24-0.767-0.32-1.22-0.08-0.453-0.153-0.893-0.22-1.32v0h-0.1c-0.193 1.093-0.413 1.94-0.66 2.54v0zM90.72 33.98c-0.6 0-1.033-0.077-1.3-0.23-0.273-0.153-0.41-0.393-0.41-0.72v0-28.2c0-0.473 0.103-0.807 0.31-1 0.2-0.193 0.53-0.29 0.99-0.29v0h8.79c2.54 0 4.79 0.607 6.75 1.82 1.96 1.213 2.94 3.437 2.94 6.67v0c0 2.413-0.563 4.283-1.69 5.61-1.12 1.327-2.38 2.213-3.78 2.66-1.4 0.447-2.66 0.67-3.78 0.67v0h-6.74v12.06c0 0.327-0.14 0.567-0.42 0.72-0.273 0.153-0.703 0.23-1.29 0.23v0zM92.8 17.67h6.78c0.733 0 1.5-0.157 2.3-0.47 0.8-0.32 1.493-0.897 2.08-1.73 0.58-0.84 0.87-1.987 0.87-3.44v0c0-1.933-0.573-3.283-1.72-4.05-1.147-0.767-2.527-1.15-4.14-1.15v0h-6.17z" fill="#ffffff" fill-rule="nonzero" stroke="none" stroke-width="1" stroke-linecap="butt" stroke-linejoin="miter" stroke-miterlimit="10" stroke-dasharray="" stroke-dashoffset="0" font-family="none" font-weight="none" font-size="none" text-anchor="none" style="mix-blend-mode: normal" data-fill-palette-color="primary" opacity="1"></path></g></svg></g></svg></g></svg></g></svg></g><g transform="matrix(1,0,0,1,0,7.508088959101443)"><svg viewBox="0 0 195.33869016761705 185.9838220817971" height="185.9838220817971" width="195.33869016761705"><g><svg xmlns="http://www.w3.org/2000/svg" xmlns:xlink="http://www.w3.org/1999/xlink" version="1.1" x="0" y="0" viewBox="5.900000095367432 8 87.69999694824219 83.5" enable-background="new 0 0 100 100" xml:space="preserve" height="185.9838220817971" width="195.33869016761705" class="icon-icon-0" data-fill-palette-color="accent" id="icon-0"><rect x="5.9" y="8" width="36.6" height="36.6" fill="#fcfcfc" data-fill-palette-color="accent"></rect><path d="M32.6 61.9h7L28.5 51l-11.1 11h7c1 12.6 11.7 22.6 24.6 22.6v-8.1C40.6 76.4 33.6 70.1 32.6 61.9z" fill="#fcfcfc" data-fill-palette-color="accent"></path><path d="M66.7 38.4h-6.9l11.1 11.1L82 38.4h-7c-1-12.6-11.7-22.6-24.7-22.6V24C58.7 24 65.7 30.3 66.7 38.4z" fill="#fcfcfc" data-fill-palette-color="accent"></path><polygon points="84.3,54.9 57,82.2 57,85.8 87.9,54.9 " fill="#fcfcfc" data-fill-palette-color="accent"></polygon><polygon points="89.3,54.9 57,87.2 57,90.8 92.9,54.9 " fill="#fcfcfc" data-fill-palette-color="accent"></polygon><polygon points="93.6,65.9 68,91.5 71.6,91.5 93.6,69.5 " fill="#fcfcfc" data-fill-palette-color="accent"></polygon><polygon points="93.6,60.9 63,91.5 66.6,91.5 93.6,64.5 " fill="#fcfcfc" data-fill-palette-color="accent"></polygon><polygon points="74.3,54.9 57,72.2 57,75.8 77.9,54.9 " fill="#fcfcfc" data-fill-palette-color="accent"></polygon><polygon points="64.3,54.9 57,62.2 57,65.8 67.9,54.9 " fill="#fcfcfc" data-fill-palette-color="accent"></polygon><polygon points="79.3,54.9 57,77.2 57,80.8 82.9,54.9 " fill="#fcfcfc" data-fill-palette-color="accent"></polygon><polygon points="69.3,54.9 57,67.2 57,70.8 72.9,54.9 " fill="#fcfcfc" data-fill-palette-color="accent"></polygon><polygon points="57,54.9 57,60.8 62.9,54.9 " fill="#fcfcfc" data-fill-palette-color="accent"></polygon><polygon points="93.6,55.9 58,91.5 61.6,91.5 93.6,59.5 " fill="#fcfcfc" data-fill-palette-color="accent"></polygon><polygon points="93.6,85.9 88,91.5 93.6,91.5 " fill="#fcfcfc" data-fill-palette-color="accent"></polygon><polygon points="93.6,80.9 83,91.5 86.6,91.5 93.6,84.5 " fill="#fcfcfc" data-fill-palette-color="accent"></polygon><polygon points="93.6,75.9 78,91.5 81.6,91.5 93.6,79.5 " fill="#fcfcfc" data-fill-palette-color="accent"></polygon><polygon points="93.6,70.9 73,91.5 76.6,91.5 93.6,74.5 " fill="#fcfcfc" data-fill-palette-color="accent"></polygon></svg></g></svg></g></svg></g><defs></defs></svg><rect width="395.5199999999999" height="141.28756394814212" fill="none" stroke="none" visibility="hidden"></rect></g></svg></g></svg>